<?xml version="1.0" standalone="no"?>
<!DOCTYPE svg PUBLIC "-/W3C/DTD SVG 1.0/EN"
"http://www.w3.org/TR/2001/REC-SVG-20010904/DTD/svg10.dtd">

<svg width="800px" height="600px" viewBox="0 0 800 600" version="1.1" xmlns="http://www.w3.org/2000/svg">
  <path d="M 246.88 29.70 L 244.90 29.11 241.47 26.42 237.01 25.15 230.76 26.31 227.37 28.01 
    227.02 26.67 227.37 24.61 228.33 22.61 231.68 20.45 235.30 20.17 244.17 21.21 
    246.70 22.14 248.58 23.77 249.08 24.88 249.07 27.64 248.58 28.86 246.88 29.70 Z
    M 170.53 72.12 L 168.83 72.12 168.34 71.17 168.37 68.39 170.14 65.02 171.82 63.50 
    176.47 61.09 183.19 58.84 187.30 58.87 188.95 60.21 189.44 62.70 188.52 64.25 
    180.63 64.91 177.18 66.01 173.08 68.73 170.53 72.12 Z
    M 213.80 95.88 L 215.02 95.99 218.56 94.51 219.74 93.33 220.13 92.03 220.06 90.51 
    218.89 87.39 217.36 85.61 215.49 84.85 213.73 85.60 212.10 87.39 210.39 90.59 
    210.96 92.55 213.02 94.00 213.80 95.03 213.80 95.88 Z
    M 95.88 115.39 L 97.68 114.32 105.55 104.45 108.82 101.98 111.99 100.97 114.61 100.70 
    116.82 102.28 118.61 105.86 120.21 112.46 121.33 113.69 123.19 113.63 125.56 112.65 
    127.72 111.13 128.96 109.45 129.01 107.84 128.27 106.08 125.57 101.81 122.66 98.12 
    118.46 94.24 116.63 91.58 116.44 89.05 118.27 87.59 121.33 86.54 120.70 84.76 
    111.99 78.06 102.33 73.79 100.97 72.12 101.39 70.87 102.66 69.58 108.62 67.59 
    111.21 65.36 113.46 62.00 115.96 56.35 118.78 51.76 126.80 43.81 127.35 40.55 
    126.87 38.73 122.84 32.10 120.48 30.55 117.98 30.42 115.39 31.40 112.55 33.46 
    110.30 36.49 105.99 43.98 99.83 60.77 93.54 73.30 90.64 74.88 87.39 73.82 
    85.74 71.93 83.74 67.43 82.30 66.18 81.27 66.12 78.99 67.05 77.35 68.98 
    76.19 76.79 74.44 79.13 71.39 80.15 68.59 80.16 65.31 78.82 62.77 76.35 
    61.09 75.51 57.18 75.15 55.35 75.55 51.46 77.62 49.94 79.10 46.40 85.79 
    45.57 90.56 45.82 93.33 46.67 95.03 47.54 94.86 48.95 93.16 49.61 86.20 
    51.14 82.70 52.61 81.45 54.23 81.19 57.68 82.14 61.24 84.80 62.64 86.76 
    66.62 95.06 67.90 96.57 70.37 97.70 72.97 96.72 74.46 95.51 78.84 88.26 
    81.45 85.70 84.91 84.02 86.60 83.76 89.62 84.73 91.69 87.35 93.42 92.31 
    93.71 95.36 92.80 106.85 94.18 112.84 95.88 114.54 95.88 115.39 Z
    M 124.72 123.87 L 126.34 123.71 128.72 122.51 131.86 119.74 132.39 117.65 131.39 115.18 
    130.66 114.54 128.76 114.62 126.38 115.60 123.46 117.96 123.11 119.48 124.72 122.17 
    124.72 123.87 Z
    M 196.83 129.81 L 199.05 129.17 201.07 127.26 200.69 124.76 199.37 123.02 196.84 124.50 
    195.27 126.64 195.13 127.26 196.83 128.96 196.83 129.81 Z
    M 128.96 134.90 L 130.57 134.75 132.93 133.56 136.07 130.78 136.71 128.47 135.74 125.56 
    134.90 124.72 133.23 124.46 131.16 124.90 129.05 125.89 126.55 128.42 126.82 130.95 
    128.36 132.81 128.96 134.90 Z
    M 226.52 137.44 L 227.67 138.13 230.80 138.46 237.02 137.16 249.13 133.19 253.61 130.36 
    259.10 125.63 262.86 120.94 269.25 108.69 271.71 101.54 273.47 89.80 273.54 83.77 
    271.44 68.61 268.40 58.77 264.98 53.00 262.39 50.02 254.77 43.98 248.58 41.58 
    243.30 41.26 232.30 43.68 226.10 46.46 221.80 49.23 215.63 54.46 208.68 63.00 
    203.64 73.30 201.02 80.01 200.67 84.28 201.07 86.54 202.92 89.45 205.31 90.79 
    206.78 89.46 210.08 81.85 213.00 79.40 216.64 78.24 220.82 78.07 224.01 78.85 
    228.76 82.26 230.76 85.70 231.60 88.07 231.95 92.41 230.82 98.26 229.07 100.97 
    226.07 103.67 220.42 105.67 217.17 105.73 215.49 105.21 213.80 103.51 212.99 104.47 
    212.72 106.34 213.51 124.03 212.95 128.11 211.25 132.35 212.26 133.33 213.93 133.89 
    223.18 134.84 225.13 135.49 226.52 136.60 226.52 137.44 Z
    M 135.75 145.08 L 137.04 145.41 138.29 145.08 138.92 143.23 138.68 139.21 137.44 136.60 
    135.65 136.74 133.09 137.90 130.80 139.47 129.81 140.84 135.16 143.57 135.75 145.08 Z
    M 176.47 153.56 L 177.80 153.06 182.06 148.74 184.95 146.78 190.04 145.45 196.98 145.35 
    200.99 144.53 203.72 142.31 206.21 136.14 206.16 133.20 201.92 135.75 198.01 135.53 
    195.22 133.58 193.14 130.21 192.61 126.01 194.13 122.45 195.70 120.35 198.48 119.05 
    201.87 119.07 205.06 120.70 207.86 123.87 208.50 123.12 209.00 119.54 208.64 114.03 
    207.01 104.36 204.95 98.04 202.51 94.48 198.57 91.42 194.41 88.95 191.74 88.24 
    188.59 87.90 183.12 88.80 176.20 91.60 173.08 94.18 168.04 99.58 166.34 102.37 
    162.31 111.53 160.88 116.14 160.24 120.80 160.35 126.42 160.94 131.03 162.02 134.78 
    163.75 138.37 167.60 144.27 174.48 149.76 176.47 152.72 176.47 153.56 Z
    M 109.45 164.59 L 111.07 165.27 115.98 164.64 122.22 162.19 123.87 160.35 122.50 158.45 
    119.63 156.96 117.92 156.66 114.73 157.16 108.21 159.87 106.20 161.54 106.51 162.43 
    109.45 163.74 109.45 164.59 Z
    M 101.81 169.68 L 99.67 168.02 99.03 164.86 99.47 162.61 101.81 157.81 103.23 155.88 
    106.95 153.35 111.99 151.87 117.89 151.91 127.45 154.89 134.32 159.66 136.60 162.90 
    136.98 164.89 136.60 166.29 134.46 166.13 131.51 164.59 129.57 162.34 128.13 162.22 
    123.32 167.32 119.84 168.80 117.76 169.11 111.04 168.66 108.27 167.96 106.90 167.14 
    105.21 164.59 103.51 165.44 102.66 168.83 101.81 169.68 Z
    M 316.45 201.07 L 314.38 200.66 313.40 199.03 313.40 196.13 314.37 194.89 316.45 195.13 
    318.14 196.83 318.11 198.48 316.45 201.07 Z
    M 330.02 210.40 L 328.54 210.81 326.63 210.40 324.57 209.07 323.23 207.01 322.85 205.01 
    323.23 203.62 326.58 203.90 329.41 205.49 330.44 207.17 330.02 210.40 Z
    M 346.99 217.19 L 344.47 217.07 341.90 215.49 340.20 209.55 335.96 206.16 335.11 203.62 
    336.44 203.27 340.28 204.18 342.96 205.75 345.96 208.54 347.86 213.46 347.61 216.22 
    346.99 217.19 Z
    M 367.35 218.04 L 365.79 218.09 362.79 217.21 358.14 214.07 352.01 208.94 348.89 205.49 
    347.84 203.62 362.26 211.25 367.18 212.22 368.20 212.95 368.71 214.89 368.20 217.19 
    367.35 218.04 Z
    M 89.94 242.64 L 88.06 242.25 86.54 240.94 86.54 238.40 88.24 236.70 90.31 237.11 
    91.19 238.44 90.79 241.79 89.94 242.64 Z
    M 96.72 252.82 L 94.90 253.26 93.33 252.82 92.88 251.19 93.33 249.43 95.94 248.41 
    97.13 248.98 97.57 251.12 96.72 252.82 Z
    M 194.28 307.96 L 191.25 305.92 187.97 301.84 182.32 289.26 177.38 271.89 174.51 255.36 
    172.80 230.28 172.87 215.94 174.50 198.89 178.28 185.87 178.80 181.85 178.17 180.71 
    177.14 180.62 167.21 186.12 165.61 186.74 164.59 186.65 164.39 186.03 165.44 182.41 
    167.18 180.01 171.42 177.11 176.47 175.62 181.57 175.36 188.76 177.08 191.93 178.56 
    193.44 179.86 194.28 181.56 193.56 182.14 190.73 182.58 189.19 182.41 186.65 180.71 
    185.70 180.93 183.26 183.26 181.32 187.31 180.56 191.15 178.21 216.03 177.81 227.63 
    179.00 250.97 182.41 269.79 185.10 281.03 188.55 291.40 192.98 301.22 194.28 307.96 Z
    M 581.13 338.50 L 583.40 339.34 586.54 339.04 600.71 335.09 607.06 332.09 614.85 327.16 
    618.09 323.92 621.04 320.02 623.09 315.73 623.45 308.99 622.87 307.21 620.83 304.16 
    618.34 302.51 612.29 301.50 608.41 301.97 585.19 308.33 582.37 309.80 581.98 310.51 
    589.62 313.05 591.28 315.14 590.81 316.01 589.92 316.22 583.91 315.59 571.71 312.36 
    568.38 310.67 565.02 307.96 564.17 306.27 563.59 306.53 559.08 316.45 554.84 320.69 
    554.48 322.36 555.70 325.89 561.68 331.48 564.64 333.35 568.98 335.01 578.63 336.08 
    581.13 337.66 581.13 338.50 Z
    M 543.81 357.17 L 545.88 356.95 548.05 355.47 549.11 353.35 549.50 351.09 548.36 337.50 
    548.90 334.26 550.29 331.81 550.73 329.29 550.33 326.52 548.97 325.55 545.61 326.21 
    543.19 327.49 541.26 329.17 540.49 331.01 540.82 338.36 542.93 345.98 543.81 351.23 
    543.45 356.37 543.81 357.17 Z
    M 189.19 363.96 L 191.03 364.25 195.89 362.44 205.44 355.03 238.68 321.10 254.90 306.12 
    267.24 293.54 281.02 278.72 298.46 256.98 312.04 242.01 315.66 237.36 318.55 232.52 
    321.19 224.45 321.54 221.43 320.69 219.74 316.34 215.83 312.20 213.00 308.11 210.93 
    294.45 205.89 285.80 202.00 266.32 191.03 255.94 184.16 244.79 175.96 233.39 165.94 
    231.61 163.74 230.75 161.79 230.76 160.35 232.50 159.21 238.81 158.17 246.28 158.44 
    251.79 159.58 252.82 160.35 252.58 160.82 249.43 162.90 245.92 163.73 238.80 164.19 
    238.40 164.59 238.56 165.58 242.92 169.42 267.14 185.49 297.34 202.42 312.20 209.30 
    340.00 220.53 348.36 222.38 357.05 223.39 370.45 221.36 382.25 216.54 386.70 213.58 
    392.17 209.02 397.00 203.41 405.17 189.54 407.45 182.22 408.67 174.01 406.65 155.58 
    404.63 147.91 402.87 143.43 398.75 137.24 393.83 132.29 385.01 126.92 379.23 125.57 
    370.90 125.12 342.41 129.81 308.84 137.11 289.71 139.71 274.98 139.86 260.95 138.08 
    255.81 138.63 248.27 141.56 244.34 142.53 233.05 143.42 219.94 141.42 214.65 139.14 
    211.25 136.60 209.80 137.88 208.54 140.37 207.79 143.31 207.86 145.93 208.81 147.33 
    212.26 149.42 213.80 151.02 214.64 153.04 214.65 154.41 212.94 154.25 204.76 149.84 
    200.23 149.04 196.05 149.50 190.16 151.14 184.01 154.24 178.29 158.60 172.36 164.77 
    170.53 165.44 170.53 162.05 173.60 158.10 173.92 156.96 172.74 155.00 167.42 151.79 
    164.59 149.32 162.17 145.81 159.07 138.81 156.96 131.51 156.76 128.12 157.33 122.82 
    156.96 119.63 152.51 110.10 149.58 100.32 146.56 84.97 145.08 69.58 145.10 58.98 
    146.16 42.88 145.56 40.52 144.23 39.04 143.26 38.80 140.58 39.58 135.34 42.92 
    125.99 50.77 113.95 66.37 112.78 69.61 112.84 71.27 114.01 73.27 122.17 78.91 
    128.15 85.65 128.96 88.24 128.84 89.63 128.11 90.79 125.21 91.36 124.73 92.07 
    128.96 96.72 131.66 101.44 134.02 107.03 139.82 123.45 141.25 129.53 141.87 134.78 
    140.91 142.42 141.06 145.82 142.71 148.89 146.78 151.87 147.65 153.71 147.63 155.26 
    146.59 155.95 145.08 156.11 141.04 154.96 132.35 148.83 123.47 145.18 117.08 144.23 
    109.34 144.50 100.52 147.29 95.09 151.64 93.33 154.41 91.29 159.34 90.89 166.47 
    93.18 173.20 95.78 176.72 98.80 179.31 105.18 182.88 108.61 183.49 112.58 183.43 
    122.74 181.72 138.24 177.63 139.88 177.61 140.84 178.17 139.14 180.71 134.05 183.26 
    128.92 189.83 125.89 196.23 121.56 210.38 117.94 219.04 110.56 231.82 107.75 235.01 
    104.36 237.55 104.56 241.00 105.93 244.30 108.31 247.58 124.25 263.02 156.06 297.54 
    170.53 311.95 184.03 322.21 188.89 327.83 191.48 333.38 191.85 337.86 188.87 357.86 
    188.58 361.93 189.19 363.96 Z
    M 530.23 374.14 L 531.08 373.96 533.79 371.69 538.43 365.34 540.41 360.56 541.20 356.34 
    541.57 347.52 541.14 343.24 539.07 335.77 537.41 332.92 535.32 330.87 532.16 330.25 
    523.29 333.15 517.51 334.26 512.89 333.97 505.72 332.59 503.09 333.41 502.03 334.82 
    501.53 336.78 501.64 346.37 507.99 371.45 509.87 373.29 514.11 370.74 520.05 369.76 
    522.80 370.00 528.55 371.68 530.23 373.29 530.23 374.14 Z
    M 202.77 374.98 L 204.53 374.27 206.16 372.44 206.05 370.99 205.31 369.89 203.99 369.96 
    202.77 370.74 202.28 373.15 202.77 374.98 Z
    M 503.93 376.68 L 506.04 375.03 506.59 372.83 502.92 364.98 501.01 358.11 499.52 342.10 
    498.84 338.94 497.56 336.05 495.45 333.41 493.73 332.58 489.32 332.41 486.97 331.72 
    484.54 329.88 483.57 328.32 484.81 327.29 487.23 326.92 510.86 328.59 521.92 327.83 
    529.58 326.47 541.65 322.20 546.15 319.49 551.81 315.12 558.73 305.62 560.37 301.34 
    561.26 294.47 559.93 290.15 557.80 287.90 554.84 286.76 552.02 286.55 549.49 287.00 
    543.81 289.30 536.86 293.10 523.98 303.18 520.05 305.42 513.42 307.74 513.64 308.36 
    514.62 308.64 529.81 310.99 530.46 312.25 530.23 313.05 529.23 313.76 526.61 314.20 
    511.54 312.67 494.18 310.00 481.52 309.70 475.92 310.32 472.54 311.36 470.18 312.34 
    467.68 314.71 467.60 317.46 469.49 322.00 478.32 335.71 494.69 356.92 498.25 362.45 
    501.36 368.65 503.93 376.68 Z
    M 202.77 382.62 L 201.59 382.95 200.22 382.62 199.37 380.92 198.46 375.27 199.37 369.89 
    200.96 366.41 202.10 365.09 205.20 363.21 208.46 362.70 209.55 363.11 210.66 365.13 
    210.96 368.17 210.56 371.64 209.55 374.98 208.58 376.42 207.01 377.53 201.92 379.23 
    202.77 380.07 202.77 382.62 Z
    M 422.49 388.56 L 420.80 386.86 420.09 384.54 419.46 370.78 420.82 361.56 421.64 360.56 
    423.44 360.12 425.04 360.56 425.90 362.20 426.05 364.21 422.67 378.93 422.49 382.62 
    423.45 386.52 423.34 387.71 422.49 388.56 Z
    M 381.77 395.34 L 381.01 395.56 379.22 394.77 377.53 391.95 374.93 385.37 374.24 380.47 
    374.15 374.34 375.37 367.98 377.01 362.92 377.53 362.26 379.88 361.72 381.77 362.26 
    382.33 363.64 382.20 365.36 377.85 377.87 377.58 383.32 379.23 389.41 381.77 393.65 
    381.77 395.34 Z
    M 229.07 397.89 L 230.40 396.23 234.89 385.52 238.40 379.23 245.88 371.73 246.03 370.74 
    245.36 369.51 240.10 365.65 235.85 358.02 236.47 366.84 235.85 369.05 233.15 368.65 
    229.07 366.50 221.78 361.02 218.89 359.71 216.34 359.71 215.29 362.47 218.04 376.68 
    219.66 388.55 222.26 392.88 227.52 395.48 229.07 397.04 229.07 397.89 Z
    M 367.35 401.28 L 365.65 401.28 363.71 399.64 360.76 393.93 359.27 388.64 358.50 379.71 
    358.94 373.39 361.41 361.67 363.11 358.87 365.85 357.84 366.85 358.66 366.50 362.26 
    363.96 368.20 362.49 374.20 361.62 379.04 361.49 383.75 362.69 390.98 366.85 397.98 
    367.35 401.28 Z
    M 276.57 408.92 L 278.27 404.68 280.57 401.97 282.73 400.84 287.82 400.38 289.30 399.59 
    290.65 396.37 291.00 386.86 290.44 394.94 291.00 398.74 292.13 400.95 294.08 401.34 
    295.58 400.84 298.63 398.74 300.29 396.85 301.18 394.50 301.58 389.16 298.77 378.44 
    296.64 377.21 292.69 378.38 290.68 380.72 288.63 386.75 286.76 390.25 285.06 391.95 
    283.88 392.15 274.23 390.22 263.31 385.30 256.21 380.07 251.03 374.30 247.88 374.81 
    245.53 376.69 240.94 382.62 235.85 391.10 234.66 394.83 234.61 396.46 235.61 398.70 
    238.99 400.12 250.59 401.91 264.90 401.39 270.96 402.32 274.97 404.60 276.57 408.92 Z
    M 313.05 411.46 L 315.51 409.94 317.68 407.26 318.14 405.52 317.84 403.25 315.64 399.27 
    312.30 395.06 309.24 392.22 307.96 391.95 306.33 393.24 304.87 395.86 303.89 399.07 
    303.72 402.13 304.28 404.08 306.89 407.36 308.81 408.92 312.27 410.02 313.05 410.62 
    313.05 411.46 Z
    M 552.29 414.86 L 554.44 415.65 557.42 415.37 567.07 412.50 571.80 409.77 575.16 406.75 
    577.74 402.98 582.43 394.70 583.72 390.85 584.73 383.76 584.55 378.12 581.98 370.74 
    577.87 364.59 569.84 358.35 566.37 356.73 561.41 356.14 559.10 356.37 547.90 360.69 
    544.30 363.47 540.19 367.78 538.01 370.63 536.61 373.54 536.17 376.68 536.73 378.25 
    537.87 379.23 539.56 378.38 541.26 381.77 543.81 380.92 545.59 379.33 546.35 377.53 
    545.83 376.02 544.66 374.98 539.56 376.68 540.43 373.48 542.76 371.42 546.24 370.55 
    549.62 371.31 552.12 373.46 553.73 376.22 554.12 378.66 553.67 381.57 551.44 385.16 
    548.90 386.86 543.06 386.54 542.11 386.86 542.03 387.35 544.60 391.44 545.77 395.86 
    544.29 404.94 544.66 408.92 546.35 411.46 551.18 413.13 552.29 414.01 552.29 414.86 Z
    M 302.03 418.25 L 303.33 418.05 307.05 415.50 307.96 414.01 307.93 412.82 306.82 409.99 
    304.78 407.18 302.36 405.15 300.21 404.63 296.70 405.84 294.63 407.32 293.54 408.92 
    293.66 410.48 294.56 412.25 297.78 415.71 301.22 416.81 302.03 417.40 302.03 418.25 Z
    M 517.51 421.64 L 519.39 422.45 521.99 422.38 530.10 420.34 532.44 419.22 536.14 415.73 
    537.95 413.31 540.59 406.22 539.94 405.34 536.03 406.43 534.47 406.37 532.92 405.08 
    531.93 402.98 531.93 401.28 532.78 402.98 533.87 403.03 536.39 402.01 537.02 401.28 
    536.54 399.85 535.32 398.74 531.93 400.43 534.05 397.09 535.32 396.19 536.72 396.16 
    540.41 397.04 540.81 396.02 540.34 392.78 537.33 386.24 534.47 381.77 531.91 378.92 
    525.59 374.90 522.60 374.14 517.68 374.50 513.27 376.68 510.92 378.58 507.89 382.99 
    505.52 388.18 503.67 393.49 503.16 396.98 503.09 401.28 503.72 406.00 507.04 413.42 
    510.20 416.65 516.80 419.87 517.51 421.64 Z
    M 285.06 422.49 L 287.09 423.03 290.03 422.78 293.83 421.41 294.45 420.31 291.00 414.86 
    289.30 407.22 288.12 405.48 286.76 404.68 284.60 405.66 282.51 408.07 281.22 410.13 
    280.82 412.31 281.38 414.77 284.61 420.16 285.06 422.49 Z
    M 412.31 436.91 L 415.12 436.55 415.88 435.05 414.88 432.69 410.65 426.25 408.95 421.76 
    407.25 414.70 405.97 403.97 406.00 390.91 407.46 369.50 407.20 358.99 405.79 353.75 
    404.58 351.81 402.98 350.38 402.16 350.27 399.78 351.24 397.27 354.02 394.63 364.90 
    393.49 375.04 394.28 394.51 397.54 410.74 400.99 420.16 405.52 428.43 411.03 433.87 
    412.31 436.07 412.31 436.91 Z
    M 108.60 447.09 L 110.85 448.71 116.51 450.57 127.32 450.60 135.61 449.33 162.18 443.43 
    193.56 438.63 211.72 434.60 221.42 432.99 224.58 431.42 227.31 426.74 228.52 422.78 
    229.75 413.49 229.52 403.01 226.80 386.76 223.63 376.68 221.69 372.16 217.23 364.61 
    214.74 361.79 212.10 359.71 210.79 359.76 206.66 361.53 206.16 361.41 205.86 360.33 
    206.16 358.87 208.18 356.26 211.25 354.62 214.08 354.14 219.67 355.32 229.64 360.43 
    230.82 360.78 231.81 360.04 228.22 350.38 227.89 338.22 226.67 337.58 224.86 338.54 
    208.62 351.84 192.56 366.29 191.91 367.63 191.95 369.60 196.32 372.55 197.16 374.28 
    197.08 376.30 196.02 381.10 193.77 386.50 190.59 390.75 187.50 392.80 187.22 391.56 
    188.03 387.65 191.84 381.33 192.59 378.38 192.41 377.09 190.89 374.68 185.55 370.15 
    184.17 366.75 183.51 360.01 185.85 346.86 186.41 340.23 184.95 333.41 181.96 327.51 
    178.43 322.67 174.43 318.58 152.10 300.56 126.55 273.68 99.12 241.76 92.49 232.71 
    83.67 218.97 81.95 214.82 81.07 211.09 80.95 207.92 81.45 207.01 82.60 206.71 
    86.14 207.78 94.19 211.49 96.39 213.13 98.94 216.43 99.27 218.89 97.89 218.89 
    95.88 218.04 92.48 214.65 90.97 214.79 89.94 215.49 89.78 217.43 90.34 219.92 
    91.48 222.73 94.94 228.38 99.04 232.45 101.73 233.18 108.17 226.67 112.60 221.04 
    113.82 217.78 113.69 216.34 111.85 212.99 108.61 209.89 104.23 207.10 93.01 202.61 
    80.20 199.92 72.38 199.53 71.27 200.22 70.41 202.11 71.08 207.28 77.10 217.06 
    83.81 224.97 85.89 230.05 85.70 230.76 84.00 230.76 82.67 229.74 80.76 227.06 
    79.32 226.66 74.81 233.72 74.00 236.30 74.08 240.06 98.22 278.67 127.44 322.42 
    138.91 342.70 144.37 350.72 148.18 354.54 150.17 355.87 154.41 357.17 156.84 356.62 
    159.10 354.83 168.75 341.66 171.92 338.47 177.14 335.34 180.01 334.86 180.83 335.65 
    177.70 340.89 168.61 352.93 164.61 357.46 159.51 361.68 154.77 364.70 153.56 364.80 
    150.59 363.51 146.09 359.27 137.85 345.39 99.28 289.77 89.09 274.03 83.91 263.27 
    82.30 262.15 81.32 262.38 78.37 265.82 67.20 285.78 62.89 295.41 56.17 313.83 
    50.96 335.44 47.30 359.94 45.50 376.51 44.30 416.35 45.15 424.27 46.39 428.32 
    49.36 434.23 51.95 436.46 54.34 436.86 56.85 435.22 58.55 431.82 62.60 427.86 
    66.44 425.85 73.82 424.41 76.41 423.43 78.03 420.55 78.46 418.56 78.29 414.38 
    77.04 409.86 67.36 386.72 63.49 370.42 62.23 360.72 60.77 339.59 61.62 325.23 
    62.71 316.48 63.88 311.90 66.28 305.80 68.73 302.03 69.49 303.51 69.43 306.98 
    66.76 325.89 65.28 342.17 65.51 355.77 65.94 357.84 68.31 360.83 71.66 361.92 
    83.99 363.54 88.11 363.12 91.63 361.41 93.56 359.44 94.81 357.13 97.89 340.92 
    100.34 334.02 101.81 331.72 103.80 329.83 105.21 329.17 105.66 329.72 105.61 333.05 
    99.67 351.18 96.72 363.11 93.49 381.65 93.02 394.02 94.17 408.61 95.13 413.57 
    96.59 416.74 97.93 417.35 100.37 414.41 103.99 411.95 107.92 410.72 110.30 410.62 
    113.00 411.00 115.39 412.31 118.05 414.89 119.63 418.25 120.16 423.35 118.00 427.48 
    113.42 430.12 103.90 431.31 101.81 432.67 102.66 435.22 102.62 436.68 100.70 442.80 
    100.97 444.55 102.43 445.27 107.92 445.74 108.60 446.25 108.60 447.09 Z
    M 446.25 453.03 L 447.35 453.68 450.85 454.23 456.43 453.77 458.12 453.03 457.13 450.95 
    453.80 447.86 446.86 443.18 438.55 439.12 434.37 437.76 428.20 437.19 421.64 438.61 
    412.99 441.54 410.02 443.14 408.92 444.55 410.16 445.71 413.28 446.74 426.52 449.45 
    442.29 449.92 444.45 450.72 446.25 452.18 446.25 453.03 Z
    M 87.39 455.58 L 89.69 455.83 92.48 454.73 94.52 451.87 95.91 447.24 96.28 444.16 
    96.42 433.53 97.10 431.31 98.42 429.28 101.38 427.58 111.05 426.08 113.88 424.11 
    115.22 421.96 115.39 420.80 115.09 419.28 113.27 416.55 111.99 415.71 109.58 415.53 
    105.62 417.39 101.50 422.62 99.27 424.19 95.90 424.59 93.80 422.97 91.99 417.94 
    89.12 395.40 89.37 386.19 92.48 372.89 92.60 368.25 90.83 365.80 87.05 364.27 
    83.75 363.71 76.60 363.71 73.30 364.27 69.53 365.80 68.06 367.63 67.86 370.61 
    72.31 389.31 82.83 415.23 83.56 421.82 82.30 425.89 81.17 427.15 77.42 428.43 
    70.00 429.62 65.33 431.82 62.34 434.94 61.09 438.61 61.94 440.31 63.98 440.67 
    69.08 439.34 76.70 436.09 78.54 435.69 79.76 436.07 79.77 437.47 77.97 440.76 
    71.44 445.78 69.06 449.59 68.99 453.22 69.58 453.88 70.85 454.09 73.85 453.09 
    78.33 450.26 83.32 445.44 88.81 439.00 90.79 437.76 90.45 439.84 86.77 449.20 
    86.54 453.88 87.39 454.73 87.39 455.58 Z
    M 513.27 456.43 L 514.73 455.96 516.90 454.28 518.95 451.97 520.05 449.64 519.79 446.66 
    518.50 443.38 516.72 440.68 514.96 439.46 513.81 439.89 512.55 441.24 508.19 448.60 
    508.47 450.50 512.09 453.81 513.27 455.58 513.27 456.43 Z
    M 480.18 457.27 L 483.57 455.93 486.12 453.88 482.81 454.02 476.37 455.31 476.09 455.65 
    480.18 456.43 480.18 457.27 Z
    M 267.24 464.91 L 269.10 453.76 270.64 447.94 273.61 442.26 275.21 437.02 276.15 425.27 
    275.73 421.64 274.37 423.35 271.27 431.20 265.41 451.87 265.10 458.19 265.55 460.67 
    267.24 463.21 267.24 464.91 Z
    M 274.88 471.70 L 275.92 453.78 275.73 445.40 273.85 451.38 271.86 463.56 272.33 466.61 
    274.32 469.63 274.88 471.70 Z
    M 510.72 475.94 L 513.44 474.99 515.81 472.54 515.39 470.96 512.42 466.61 517.67 469.41 
    520.05 470.00 523.18 469.22 524.43 468.43 525.14 467.45 525.12 465.00 523.33 460.58 
    520.90 458.12 519.42 458.96 518.36 460.67 520.90 464.58 519.61 465.23 514.44 463.65 
    508.19 458.82 505.63 455.58 502.78 450.67 500.53 445.84 499.34 441.84 499.69 439.46 
    502.24 440.31 503.93 442.85 505.98 442.01 507.33 440.31 501.68 435.94 496.89 434.91 
    495.87 436.07 496.30 440.31 499.69 452.18 496.86 448.23 495.47 448.13 490.43 453.22 
    489.19 455.53 488.81 459.43 492.23 464.58 494.09 466.44 497.77 468.88 507.98 472.54 
    510.72 475.09 510.72 475.94 Z
    M 285.06 478.48 L 286.35 478.82 287.60 478.48 288.97 476.29 290.46 469.87 290.58 461.52 
    288.86 447.46 286.92 438.43 283.62 427.75 281.63 423.92 280.82 423.34 279.53 426.61 
    278.43 432.68 278.13 448.87 277.08 464.36 278.36 470.85 279.97 474.24 281.08 475.30 
    284.00 476.59 285.06 477.64 285.06 478.48 Z
    M 609.98 482.73 L 612.39 484.18 615.38 484.84 618.88 484.82 627.21 483.32 649.83 477.10 
    667.29 468.14 672.03 464.84 681.59 456.78 689.21 447.69 692.47 441.58 693.71 438.21 
    694.00 434.85 693.12 431.82 691.78 429.86 688.58 427.19 680.82 422.97 676.19 421.11 
    671.33 419.94 661.41 418.71 646.52 418.10 641.46 418.46 630.97 420.22 609.64 425.48 
    600.98 428.88 584.05 437.92 572.18 446.99 568.02 450.95 564.75 455.52 563.35 458.37 
    563.32 459.82 564.30 462.44 566.15 464.63 574.43 471.16 585.30 476.60 590.34 478.40 
    596.57 479.85 607.28 480.31 609.98 481.88 609.98 482.73 Z
    M 195.98 499.69 L 197.84 500.45 200.50 500.52 203.23 499.97 205.31 498.84 206.41 497.21 
    206.84 495.11 207.18 485.68 206.99 477.36 203.83 454.43 200.29 443.62 199.37 442.85 
    197.02 442.32 191.64 443.31 190.04 444.55 189.64 445.74 190.19 448.58 193.61 456.47 
    195.48 465.68 196.02 477.27 194.10 495.46 194.66 497.82 195.98 499.69 Z
    M 587.92 502.24 L 588.93 502.61 591.72 502.17 601.49 497.15 609.85 491.91 612.57 489.57 
    613.37 487.82 612.62 487.04 611.01 486.64 598.84 486.32 588.42 484.55 580.35 481.86 
    569.41 476.25 561.65 469.42 559.63 466.29 558.22 460.32 559.08 455.58 560.08 452.82 
    562.88 448.69 567.99 442.99 573.15 438.68 588.28 428.81 596.40 425.04 607.98 421.58 
    608.84 421.20 608.97 420.44 606.97 419.63 590.20 416.83 586.22 415.71 580.51 412.62 
    578.59 412.31 576.18 412.92 569.26 417.40 565.94 418.54 559.78 419.43 553.14 419.10 
    546.67 415.93 544.66 415.71 541.70 417.21 536.91 422.87 533.63 425.04 530.03 425.68 
    521.40 424.77 515.52 426.09 514.60 428.51 515.59 432.43 527.12 451.71 538.08 466.33 
    547.47 476.57 559.24 486.94 568.40 493.14 577.74 498.00 586.19 500.04 587.92 501.39 
    587.92 502.24 Z
    M 597.25 503.09 L 599.20 503.89 601.88 503.71 616.41 501.06 621.96 499.67 633.02 495.82 
    637.58 493.62 645.22 488.43 649.93 484.36 651.55 481.88 650.20 481.18 647.37 481.00 
    638.58 482.08 627.80 484.97 622.47 487.05 616.46 490.34 612.89 495.22 610.83 497.15 
    606.93 498.89 599.73 500.39 597.25 502.24 597.25 503.09 Z
    M 33.10 509.02 L 34.44 509.19 35.29 508.29 35.92 504.78 35.29 501.27 34.79 500.54 
    33.50 500.21 32.25 500.54 31.91 501.64 33.10 509.02 Z
    M 35.64 514.11 L 33.89 514.11 32.25 513.27 30.54 511.10 29.70 508.18 28.91 501.22 
    29.32 498.37 30.55 496.30 31.71 495.72 34.96 495.74 38.35 497.64 39.79 499.39 
    41.58 503.93 41.77 507.00 40.73 509.87 35.64 514.11 Z
    M 23.77 520.90 L 21.79 520.48 20.37 519.20 20.45 517.86 21.22 516.66 23.52 516.11 
    25.46 516.66 25.48 518.10 23.77 520.90 Z
    M 411.46 531.93 L 413.13 531.54 418.37 527.43 421.64 525.99 426.09 526.90 429.39 526.05 
    432.29 523.62 432.39 521.95 429.83 519.80 423.93 517.07 417.52 515.41 414.92 515.29 
    413.16 515.81 412.64 517.15 413.32 523.63 412.79 526.36 411.46 529.38 411.46 531.93 Z
    M 436.91 531.93 L 438.92 530.69 441.93 527.41 444.55 523.84 445.40 521.75 443.30 521.73 
    439.43 522.96 436.91 524.29 434.47 526.38 433.52 528.54 436.12 530.26 436.91 531.08 
    436.91 531.93 Z
    M 443.70 531.93 L 445.87 532.48 447.94 531.93 448.08 529.14 447.09 526.84 444.42 528.97 
    443.70 530.23 443.70 531.93 Z
    M 286.76 532.78 L 289.29 531.91 301.60 521.25 311.90 509.64 312.83 508.09 313.05 506.48 
    312.41 504.69 309.20 501.56 305.06 500.08 301.02 500.63 294.22 503.38 288.45 508.18 
    287.37 510.92 286.45 515.73 286.76 532.78 Z
    M 36.49 533.63 L 33.92 533.96 32.55 532.95 31.48 527.47 32.25 523.45 33.95 521.75 
    35.36 521.44 36.49 521.75 37.46 524.44 37.30 531.61 36.49 533.63 Z
    M 51.76 537.02 L 48.59 533.82 46.63 529.77 45.98 525.98 45.68 517.05 47.29 508.10 
    50.61 500.81 51.81 499.12 53.46 498.00 55.76 497.87 57.70 498.84 57.70 501.39 
    56.54 503.57 52.55 507.75 50.76 511.04 48.26 521.42 48.64 527.43 51.42 533.85 
    51.76 537.02 Z
    M 279.12 538.72 L 280.35 538.30 281.67 537.02 282.81 533.46 282.24 523.51 284.21 514.96 
    284.21 512.42 282.51 513.27 281.60 514.47 280.07 518.07 278.01 533.53 278.14 536.92 
    279.12 538.72 Z
    M 87.39 541.26 L 89.07 541.47 93.82 539.89 95.03 538.72 95.04 537.18 92.85 533.82 
    84.31 524.75 82.30 521.75 79.76 515.81 78.91 517.51 78.83 519.85 80.02 525.67 
    84.00 534.47 86.73 538.73 87.39 541.26 Z
    M 72.97 547.20 L 69.99 545.72 64.90 540.82 59.75 532.07 58.28 526.18 58.19 520.45 
    59.47 512.48 62.91 505.71 64.39 504.00 66.18 503.09 68.92 504.04 69.88 505.99 
    68.59 508.81 65.86 510.87 63.40 514.41 61.55 522.74 61.65 526.85 63.44 532.88 
    67.17 538.31 72.39 543.43 73.24 546.19 72.97 547.20 Z
    M 89.94 549.75 L 93.33 548.05 95.25 547.69 104.69 547.66 105.21 547.20 105.05 546.29 
    103.08 543.75 101.81 542.96 98.05 542.53 93.81 543.16 90.18 544.55 88.24 546.35 
    89.94 548.90 89.94 549.75 Z
    M 607.43 553.14 L 609.57 553.78 612.58 553.40 615.98 552.26 621.41 549.21 624.37 545.93 
    625.25 543.81 625.78 537.81 619.48 514.67 617.45 510.30 616.03 508.62 614.22 507.33 
    611.43 507.10 609.13 508.18 608.70 509.43 609.34 512.49 612.02 518.47 613.37 523.45 
    614.22 531.92 613.37 533.63 612.59 533.85 611.16 532.97 610.08 529.61 608.15 519.03 
    604.77 508.78 603.19 507.33 599.43 506.90 596.85 507.74 596.22 508.79 598.95 515.81 
    599.32 520.39 599.12 524.42 597.27 534.75 597.17 541.62 598.10 545.50 599.37 547.85 
    601.49 549.75 606.34 551.41 607.43 552.29 607.43 553.14 Z
    M 246.03 553.99 L 248.34 554.65 255.37 553.49 263.77 549.76 271.29 544.33 274.93 539.59 
    275.43 536.05 275.21 527.63 275.73 525.14 277.42 521.75 277.42 519.20 276.32 519.44 
    274.97 520.69 264.28 535.97 256.85 544.64 251.97 548.90 247.09 551.20 246.03 552.29 
    246.03 553.99 Z
    M 139.99 554.84 L 141.26 555.67 144.66 556.19 159.26 553.56 162.68 552.50 168.44 548.55 
    171.38 544.66 174.79 538.28 181.80 515.87 182.00 513.20 181.56 512.42 180.60 512.08 
    177.61 513.03 168.27 517.50 160.83 519.53 159.07 519.69 157.81 519.20 157.81 517.51 
    160.63 515.09 171.37 511.99 179.30 507.25 181.56 504.78 179.04 504.29 164.34 506.77 
    157.90 507.10 154.68 506.38 153.56 505.63 153.56 503.93 155.82 502.20 158.84 501.43 
    171.33 500.14 187.78 500.82 189.97 500.18 191.74 498.84 193.21 496.47 193.89 493.67 
    193.50 486.84 190.85 473.54 188.50 457.93 185.07 446.30 184.10 445.40 181.56 444.46 
    178.95 444.30 162.34 448.90 149.91 450.05 120.45 448.21 113.38 448.64 106.34 450.13 
    99.27 453.03 97.47 454.65 95.16 458.91 93.33 460.67 90.92 461.59 88.24 461.52 
    85.21 460.70 83.15 458.97 82.79 457.18 83.15 452.18 78.91 455.58 75.20 457.37 
    69.53 458.25 66.69 457.93 65.33 457.27 64.27 456.22 63.17 452.16 63.64 449.64 
    66.18 446.25 64.65 444.75 61.75 443.43 58.73 442.67 56.85 442.85 56.26 444.97 
    56.95 448.54 63.52 466.88 66.92 473.50 75.79 487.87 82.31 496.70 91.63 507.33 
    98.72 513.93 108.37 521.21 111.79 525.05 111.99 526.84 109.45 527.69 106.92 527.00 
    104.88 525.72 90.23 514.05 84.85 508.18 82.30 503.93 81.17 504.16 78.68 506.14 
    78.06 507.33 78.21 509.43 87.05 522.14 91.76 527.77 103.67 539.62 111.05 544.80 
    114.70 546.75 123.74 549.85 136.69 551.69 139.99 553.99 139.99 554.84 Z
    M 402.13 559.08 L 404.52 560.15 407.83 560.19 411.70 559.47 417.75 557.42 420.89 555.34 
    421.64 553.99 421.63 552.65 416.97 545.00 416.47 543.83 416.92 542.75 420.40 543.53 
    424.31 547.62 425.89 551.44 425.89 556.53 427.97 556.02 432.08 553.19 432.75 551.04 
    431.82 548.55 430.04 546.03 424.01 541.54 423.34 540.41 423.34 538.72 425.80 538.81 
    432.20 542.19 434.37 544.66 435.22 547.20 436.91 547.20 437.47 545.52 436.44 540.47 
    433.69 535.48 430.00 532.11 427.58 531.08 424.43 530.93 420.80 531.93 415.89 533.84 
    408.45 537.85 406.37 537.87 406.06 536.17 408.64 527.33 409.28 519.20 408.07 514.11 
    406.33 511.70 404.68 510.72 403.80 512.35 403.63 520.24 402.98 525.14 402.05 528.77 
    400.43 531.93 398.61 534.31 396.19 536.17 389.56 538.88 386.24 541.47 383.00 545.30 
    382.62 547.20 383.37 549.06 387.47 552.33 392.04 554.85 400.01 556.64 402.13 558.23 
    402.13 559.08 Z
    M 441.16 559.08 L 442.77 559.74 447.52 559.24 449.64 558.23 451.39 556.11 452.18 553.14 
    452.61 547.75 452.30 542.64 451.08 538.31 450.08 536.62 447.94 534.92 444.13 534.73 
    441.67 535.27 440.31 536.17 442.17 539.03 443.09 541.52 442.49 547.25 441.48 551.15 
    440.31 553.14 436.91 555.68 440.15 557.35 441.16 558.23 441.16 559.08 Z
    M 218.04 560.77 L 221.01 561.30 225.19 560.04 238.96 553.25 244.56 549.29 251.79 542.81 
    262.51 530.39 271.86 520.79 274.37 516.08 274.88 513.27 274.52 510.58 273.21 508.17 
    261.96 491.65 243.49 466.61 240.33 461.38 232.47 444.20 230.49 441.14 228.02 438.69 
    224.83 436.91 220.63 436.26 213.72 438.06 205.31 442.85 205.33 444.59 207.86 450.49 
    209.32 456.56 211.02 468.30 211.26 476.35 208.90 491.81 209.18 497.02 210.40 498.84 
    211.81 499.58 213.57 499.69 226.63 496.51 233.81 496.41 235.85 497.15 235.37 497.94 
    232.40 499.76 227.95 501.17 205.31 503.93 207.36 504.47 222.32 505.46 227.37 506.34 
    234.06 508.72 235.85 509.87 236.70 511.57 235.71 512.45 232.09 513.14 217.19 511.57 
    210.11 509.95 202.25 506.81 196.78 505.61 193.44 505.63 190.06 506.33 187.50 508.18 
    186.66 509.80 186.65 511.57 188.04 514.16 194.46 519.31 197.92 523.20 201.80 528.22 
    210.25 541.17 216.17 553.09 218.04 560.77 Z
    M 471.70 574.35 L 473.16 574.80 477.63 573.72 482.30 571.58 483.57 570.11 483.81 567.29 
    482.73 564.17 481.31 562.12 477.68 558.59 477.90 558.05 481.79 558.41 485.60 560.46 
    486.97 562.47 487.42 564.43 487.30 568.16 487.82 569.26 489.05 569.56 492.57 568.51 
    496.71 566.48 498.00 565.02 498.44 561.33 496.52 556.32 490.64 552.13 485.26 549.75 
    484.42 548.90 484.96 548.50 487.85 547.99 491.75 548.45 493.59 549.08 497.15 551.44 
    500.68 555.55 501.39 557.38 501.39 561.62 502.86 560.98 504.78 559.08 506.00 557.43 
    506.48 555.68 505.83 552.72 501.71 546.95 494.27 541.27 489.51 539.56 484.94 539.64 
    477.63 542.31 471.70 546.35 466.72 551.79 464.80 552.49 464.06 552.29 463.66 551.52 
    464.06 548.05 466.61 545.50 467.14 542.36 466.95 539.43 461.43 523.55 459.90 512.71 
    460.21 509.54 461.32 508.99 463.25 509.95 464.43 511.61 464.91 514.11 466.96 514.46 
    479.94 508.89 487.08 503.92 491.92 499.56 500.02 489.54 503.41 483.61 503.93 479.33 
    503.14 477.61 500.11 474.86 492.06 470.00 487.90 464.56 486.12 463.21 484.09 462.60 
    477.64 462.36 474.17 460.91 469.12 457.62 465.76 456.43 459.96 455.79 447.29 457.28 
    436.47 456.79 418.86 453.52 412.31 451.34 408.59 449.16 405.45 448.88 401.89 451.17 
    400.57 452.80 395.48 461.37 391.82 470.47 391.12 476.27 392.67 481.53 393.65 482.73 
    397.04 481.03 397.80 482.36 397.89 484.42 396.73 488.57 394.80 491.99 387.38 499.91 
    384.43 500.94 381.63 500.95 378.13 499.82 375.16 497.79 374.14 496.30 373.50 493.32 
    374.53 487.03 374.14 483.57 373.15 481.48 371.59 480.18 368.71 479.51 362.59 480.65 
    352.19 484.55 342.24 491.72 337.28 498.90 335.73 502.05 334.93 505.09 335.11 508.18 
    336.63 510.72 339.35 512.42 341.06 512.76 349.76 511.05 352.08 511.57 352.29 512.33 
    351.08 514.28 349.53 514.96 340.01 516.07 339.35 516.66 339.34 518.14 341.11 521.56 
    343.15 523.74 346.56 524.37 351.17 522.73 357.64 519.34 359.30 518.90 360.56 519.20 
    360.87 520.29 359.98 522.51 355.44 524.96 354.62 525.99 356.28 528.13 358.65 528.68 
    361.61 527.76 365.93 524.67 368.15 522.35 369.75 519.73 370.84 514.69 367.35 503.09 
    374.35 510.79 377.48 511.92 380.74 511.40 385.17 509.58 391.10 504.78 394.99 500.44 
    400.07 493.00 403.83 490.36 405.52 490.36 405.52 492.91 404.17 495.81 400.79 500.24 
    400.43 502.24 401.00 503.60 404.81 506.82 420.30 513.94 428.85 516.17 439.47 517.83 
    442.41 517.73 444.87 516.14 444.44 511.95 444.85 508.85 445.40 508.18 447.09 508.18 
    448.79 509.87 449.69 512.22 450.26 516.40 449.98 522.90 450.49 528.54 451.88 533.81 
    454.79 541.40 455.58 546.35 455.12 551.32 452.70 559.29 453.03 563.32 455.21 566.63 
    458.97 569.26 462.68 570.73 469.40 571.88 471.70 573.50 471.70 574.35 Z
    M 110.30 576.04 L 111.67 576.60 115.78 576.05 120.07 573.79 121.33 571.80 122.21 567.46 
    122.05 563.10 120.89 558.85 118.78 554.84 117.15 552.88 112.92 550.40 105.58 549.27 
    101.20 549.62 97.12 550.88 93.33 553.14 92.48 554.84 92.74 557.01 95.23 562.74 
    101.81 570.11 104.16 571.74 108.70 573.59 110.30 575.20 110.30 576.04 Z
    M 476.79 579.44 L 469.46 578.66 462.36 576.04 457.50 573.56 450.31 567.77 449.29 565.52 
    449.21 563.29 447.62 561.73 437.81 561.38 436.07 560.77 433.52 558.23 431.70 558.06 
    428.34 559.01 422.93 561.87 418.25 563.32 410.68 564.08 405.35 563.63 398.26 562.43 
    389.09 559.01 380.96 553.07 378.38 548.90 377.94 546.78 379.53 542.32 380.96 540.55 
    386.64 535.94 394.13 532.21 397.04 529.09 399.06 525.11 399.93 517.77 399.60 513.05 
    398.63 509.28 397.04 507.33 394.83 508.02 388.52 514.08 384.32 516.66 381.69 517.12 
    377.00 516.81 374.98 517.51 373.51 519.27 371.55 525.45 369.75 528.22 366.50 531.08 
    363.49 532.56 360.40 532.93 357.33 532.51 353.75 531.15 349.53 528.54 341.50 527.32 
    338.32 525.82 335.56 522.65 334.11 519.60 332.21 512.98 331.37 504.66 332.54 498.09 
    334.83 493.11 339.14 487.59 341.27 485.65 350.43 479.71 355.96 477.02 363.63 474.93 
    366.94 474.30 371.61 474.56 374.96 475.92 376.32 477.04 378.38 480.18 379.08 483.43 
    378.69 491.26 380.30 494.57 381.77 495.45 383.88 495.15 386.01 493.75 389.49 490.26 
    390.55 488.33 391.10 484.90 387.71 476.79 387.51 471.74 388.18 468.15 390.15 461.32 
    392.80 456.43 400.40 447.98 399.77 445.93 396.78 444.35 386.47 441.51 379.67 438.56 
    369.65 433.54 352.50 423.91 337.72 414.02 325.72 402.88 323.98 402.08 322.39 402.13 
    321.55 403.57 320.99 409.56 319.84 412.31 318.02 413.74 313.63 415.16 311.36 416.55 
    307.96 421.64 305.40 422.79 300.10 423.30 296.94 424.19 291.85 427.58 286.95 427.24 
    285.91 427.58 285.33 428.40 285.03 431.86 286.86 447.56 290.52 466.27 292.25 480.75 
    291.85 482.73 287.71 482.17 282.20 480.31 271.35 473.54 266.47 469.07 263.20 464.88 
    262.15 462.36 261.46 456.97 261.65 452.50 265.72 434.28 270.64 423.34 275.06 418.31 
    275.73 416.55 275.61 413.94 274.78 411.33 273.36 409.00 271.48 407.22 267.68 405.81 
    255.94 406.59 242.43 404.90 232.46 402.13 225.58 398.63 224.26 399.37 223.98 400.43 
    223.98 404.87 224.83 408.91 229.63 419.90 231.75 427.54 231.61 431.82 229.07 436.07 
    229.58 440.11 232.48 448.21 234.72 452.26 240.39 460.30 268.05 490.96 273.18 498.00 
    276.93 506.68 278.24 508.63 279.12 509.02 280.85 508.36 286.10 502.47 294.57 497.77 
    299.81 496.54 307.35 496.30 309.67 496.88 314.29 499.19 317.30 502.07 318.14 503.93 
    318.11 507.57 315.81 512.84 313.99 515.58 305.15 524.56 296.46 531.65 281.52 542.11 
    264.89 551.14 253.87 556.16 238.47 561.72 218.92 565.47 215.39 564.99 212.99 563.41 
    210.40 553.99 204.87 541.85 192.64 523.12 189.41 519.45 187.96 518.53 186.65 518.36 
    185.38 519.16 184.45 520.89 180.52 538.04 178.00 544.44 173.30 551.69 168.83 555.68 
    163.23 558.58 160.48 559.32 148.34 560.81 143.64 560.57 134.90 559.08 127.56 555.72 
    125.57 555.68 124.51 556.63 123.59 560.17 125.62 570.47 125.11 575.43 122.77 578.81 
    118.23 580.17 112.79 580.07 106.31 578.56 101.41 575.37 96.95 571.34 90.32 562.23 
    87.73 557.75 82.91 545.51 79.27 534.44 73.41 508.48 73.82 505.63 74.70 504.16 
    77.32 501.94 78.06 500.54 77.90 499.35 72.84 490.00 62.63 475.33 57.87 465.91 
    53.46 453.03 51.71 442.46 50.11 440.34 43.99 437.71 41.80 434.35 39.73 429.28 
    38.41 421.53 38.38 416.09 39.73 397.07 40.06 372.87 43.20 343.02 47.71 321.78 
    50.42 312.38 57.50 292.85 61.31 284.70 67.49 274.10 77.43 262.79 78.46 260.53 
    78.91 257.91 77.78 253.91 71.73 246.55 69.58 241.79 69.37 237.70 70.42 233.31 
    71.87 229.72 75.02 224.43 75.51 221.43 74.20 216.99 67.15 207.17 65.55 200.92 
    66.18 197.68 67.88 195.98 70.70 195.32 73.34 195.42 83.56 197.68 91.68 200.18 
    103.51 205.31 113.09 211.14 115.39 211.25 117.75 209.57 120.04 206.54 123.99 198.28 
    126.40 190.14 126.76 187.27 126.42 185.80 123.87 187.50 120.96 188.50 114.57 189.20 
    107.73 188.84 98.29 185.89 93.00 182.34 87.83 176.21 85.58 169.42 85.22 163.29 
    86.28 156.21 88.16 151.16 91.80 146.18 95.69 143.14 102.87 139.87 107.75 139.14 
    113.28 139.31 120.33 140.69 123.63 140.70 124.72 139.99 125.32 137.95 117.99 111.29 
    115.52 107.35 113.69 106.06 112.12 106.04 108.38 108.42 102.62 117.45 99.27 120.48 
    95.41 121.59 94.18 121.33 92.18 119.74 90.79 117.08 89.57 112.96 89.11 108.71 
    89.55 93.51 88.89 90.91 87.39 89.09 85.92 89.07 83.20 90.46 80.41 93.95 
    77.41 100.00 75.51 101.81 72.69 102.88 67.83 102.05 65.12 99.97 62.22 96.65 
    58.04 88.07 56.00 86.54 54.69 86.98 52.90 89.35 52.26 96.32 50.68 99.18 
    49.22 100.12 46.65 100.28 43.22 98.61 41.58 95.88 40.86 93.05 40.69 90.55 
    41.58 84.85 43.67 79.19 46.57 74.91 49.60 71.70 53.46 69.73 58.55 69.58 
    63.21 70.94 67.03 73.82 67.88 75.51 69.57 75.55 72.22 73.56 74.03 66.54 
    75.51 63.64 77.81 61.37 80.61 60.24 82.35 60.30 84.00 61.09 85.64 62.85 
    87.71 66.85 89.09 67.88 89.94 67.70 93.54 63.61 95.44 60.27 101.26 41.42 
    106.32 31.36 109.83 27.57 113.67 24.76 118.35 23.39 120.48 23.77 123.28 25.01 
    125.57 27.16 127.60 30.62 129.77 37.32 131.51 39.04 133.57 38.78 140.00 34.52 
    143.85 33.60 147.44 34.58 149.88 38.35 151.67 43.62 152.45 51.47 151.20 68.78 
    151.17 75.59 151.87 83.15 155.40 104.42 156.55 108.07 157.81 109.45 161.99 97.71 
    166.54 91.95 169.84 88.92 175.31 85.67 182.20 83.49 187.56 82.71 190.89 83.15 
    193.65 84.78 194.28 84.85 195.45 83.94 196.71 80.63 198.40 70.06 201.20 62.60 
    208.20 52.10 216.20 44.68 221.56 41.51 229.75 37.91 239.80 36.33 248.31 36.87 
    255.92 38.53 263.40 42.31 267.58 45.24 271.12 49.06 273.79 52.94 277.62 62.17 
    278.65 66.55 279.95 75.91 280.01 80.27 279.46 93.48 278.18 100.95 275.40 112.31 
    273.09 118.41 268.41 128.33 265.91 130.98 263.08 132.88 263.71 134.04 267.46 135.34 
    272.27 135.91 294.76 133.30 309.00 130.98 345.94 122.75 361.41 120.48 370.83 119.73 
    381.56 120.69 386.78 122.03 395.69 125.77 402.01 130.67 407.92 138.13 411.88 146.64 
    414.28 157.63 415.03 166.39 414.36 180.17 412.42 188.85 408.06 200.22 400.70 210.81 
    396.63 214.80 388.93 220.42 378.55 225.18 366.93 227.92 358.20 228.71 345.68 227.78 
    342.17 227.22 334.26 224.83 330.42 222.51 329.17 222.28 327.86 222.80 321.91 229.96 
    316.50 241.17 312.21 248.58 303.30 261.61 295.86 271.16 275.04 295.39 260.46 309.66 
    255.94 313.55 241.00 323.30 238.09 325.73 235.52 328.72 233.31 332.57 232.46 336.90 
    233.86 344.33 235.72 349.86 241.90 359.81 248.05 366.93 262.53 378.51 274.48 385.16 
    277.42 386.01 280.21 386.09 283.36 384.38 285.97 377.96 289.07 373.97 294.06 371.58 
    295.91 371.33 299.36 372.31 302.87 376.68 303.84 379.12 304.81 384.75 307.12 387.71 
    320.69 395.34 330.87 403.83 346.13 414.72 368.81 428.11 384.17 438.44 393.07 442.75 
    397.79 443.71 402.98 443.70 407.29 441.84 408.97 440.25 409.77 438.61 408.96 435.67 
    401.14 427.39 397.15 420.47 394.96 415.15 391.43 403.48 389.69 394.53 388.35 377.43 
    390.31 362.86 391.30 358.72 393.94 352.76 397.16 347.88 399.59 346.14 402.73 345.16 
    405.73 346.17 407.22 347.84 409.03 351.67 410.25 360.06 410.81 369.42 409.37 392.49 
    410.04 405.96 413.21 419.68 418.52 432.41 420.75 433.72 427.58 431.82 433.54 432.72 
    443.96 437.56 447.63 440.05 456.26 447.39 462.54 451.05 468.99 452.51 475.03 451.89 
    487.59 447.79 492.60 444.66 493.75 442.85 492.06 438.61 492.02 436.52 492.80 432.95 
    493.75 431.82 495.23 431.30 497.05 431.40 501.39 432.67 506.43 436.36 508.18 436.91 
    509.70 436.76 512.49 435.38 513.27 434.37 513.53 432.22 512.85 429.82 509.87 424.19 
    507.97 421.42 503.22 416.41 500.89 412.38 499.39 408.28 498.10 399.15 498.84 392.80 
    501.39 386.01 501.35 383.44 500.54 380.92 497.41 374.05 494.03 368.22 474.85 343.27 
    466.61 329.63 464.63 324.66 462.91 315.90 463.08 313.15 464.06 310.51 465.23 308.98 
    468.63 307.00 475.96 305.15 484.81 305.14 497.34 306.61 502.05 306.42 509.07 304.90 
    512.87 303.13 522.89 296.39 531.09 290.06 537.75 286.05 546.72 282.55 554.06 281.36 
    560.25 282.85 564.27 286.02 565.44 288.00 566.14 290.89 565.31 297.74 565.86 300.33 
    568.99 304.20 573.50 306.27 578.02 306.68 582.15 306.12 586.06 304.86 598.44 299.38 
    603.41 297.87 610.84 296.78 614.88 296.61 620.16 297.78 623.48 299.41 626.10 302.03 
    628.29 306.19 629.06 311.21 628.63 316.57 627.18 321.88 625.66 324.89 621.99 329.65 
    615.99 334.76 610.86 338.15 605.28 340.78 593.93 343.61 587.53 343.94 577.06 343.10 
    569.63 341.23 561.31 337.61 558.23 335.11 557.00 332.92 555.67 332.74 554.07 334.52 
    553.38 336.92 551.79 347.16 552.36 351.84 554.51 353.75 556.23 353.99 568.24 352.52 
    573.22 353.63 576.62 355.60 581.95 360.22 586.17 366.84 588.77 374.98 589.83 383.48 
    589.32 390.07 587.71 396.26 586.22 399.66 581.04 407.18 581.86 409.39 584.24 411.71 
    589.79 414.42 594.52 415.78 605.61 417.54 617.61 418.25 620.60 418.00 628.64 415.71 
    642.12 414.05 648.96 413.72 669.91 414.36 681.81 417.02 688.72 420.30 692.11 422.47 
    695.83 426.09 698.27 429.55 699.57 434.67 699.53 437.17 697.73 444.50 696.27 448.15 
    690.42 456.74 685.62 461.79 676.26 469.59 666.98 475.57 660.88 480.18 651.38 489.57 
    647.31 492.91 640.85 497.21 633.73 500.54 628.64 502.15 622.12 503.32 619.26 504.55 
    618.17 506.62 618.69 509.78 625.49 520.53 628.64 527.69 630.44 534.97 630.34 542.11 
    629.11 548.16 627.94 550.62 623.90 555.40 619.05 558.19 612.84 559.56 607.50 558.97 
    600.27 557.22 595.38 554.34 593.01 551.44 592.03 547.96 592.16 543.81 592.60 539.94 
    594.49 532.38 594.86 523.01 593.38 512.43 592.16 509.87 587.18 505.71 571.58 500.07 
    563.44 495.57 557.72 491.65 545.47 481.48 537.87 473.39 534.00 468.05 529.01 459.43 
    525.14 456.43 523.45 456.43 523.66 457.66 526.53 461.55 527.69 464.06 528.49 468.30 
    527.69 471.70 526.13 472.90 521.63 473.94 519.20 475.09 515.55 480.05 514.11 481.03 
    510.72 480.18 508.95 481.25 506.58 484.59 503.71 491.69 500.54 497.15 495.86 503.12 
    488.43 509.76 483.95 513.08 476.79 516.66 468.38 518.51 466.63 520.23 466.13 521.41 
    465.82 526.14 468.77 534.97 469.15 542.11 470.94 541.80 476.59 537.72 480.18 536.17 
    486.94 535.51 491.80 536.45 496.85 538.08 501.47 540.78 508.35 547.67 510.72 553.14 
    510.92 556.49 509.06 561.72 501.69 569.83 495.73 573.26 488.51 574.66 481.03 578.59 
    476.79 579.44 Z"
    style="fill:#000033; fill-opacity:0.25; fill-rule:evenodd;
    stroke:#000033; stroke-opacity:1.00; stroke-width:1.20;"/>
</svg>
